<?xml version="1.0" standalone="no"?>
<!DOCTYPE svg PUBLIC "-//W3C//DTD SVG 20010904//EN"
 "http://www.w3.org/TR/2001/REC-SVG-20010904/DTD/svg10.dtd">
<svg version="1.0" xmlns="http://www.w3.org/2000/svg"
 width="512.000000pt" height="512.000000pt" viewBox="0 0 512.000000 512.000000"
 preserveAspectRatio="xMidYMid meet">

<g transform="translate(0.000000,512.000000) scale(0.100000,-0.100000)"
fill="#000000" stroke="none">
<path d="M1868 5109 c-89 -14 -134 -49 -412 -328 -254 -255 -266 -269 -266
-305 0 -70 72 -116 133 -85 12 6 139 128 282 270 l261 259 54 0 55 0 818 -817
c450 -450 825 -830 833 -845 19 -36 18 -88 -2 -118 -24 -36 -1581 -1596 -1628
-1631 -44 -32 -91 -38 -134 -15 -15 8 -395 383 -844 833 l-818 818 0 55 0 54
259 261 c142 143 264 270 270 282 31 61 -15 133 -85 133 -36 0 -50 -12 -307
-267 -310 -310 -329 -336 -329 -463 0 -140 -41 -93 899 -1031 807 -805 840
-837 898 -859 47 -17 75 -21 130 -18 89 6 151 37 225 112 30 31 58 56 62 56 4
0 8 -274 8 -608 l0 -609 30 -61 c36 -71 82 -115 160 -151 l55 -26 1195 0 1195
0 61 28 c106 49 167 131 185 249 6 39 9 495 7 1213 l-3 1150 -26 55 c-36 78
-80 124 -151 160 l-61 30 -609 0 c-334 0 -608 4 -608 8 0 4 25 32 56 62 75 74
106 136 112 225 3 55 -1 83 -18 130 -22 58 -54 91 -859 898 -741 742 -843 841
-896 867 -67 32 -118 40 -187 29z m3018 -2443 l34 -34 0 -1182 0 -1182 -34
-34 -34 -34 -1182 0 -1182 0 -34 34 -34 34 0 698 0 699 517 517 518 518 698 0
699 0 34 -34z"/>
<path d="M3558 1797 c-100 -38 -166 -96 -216 -190 -24 -47 -27 -62 -27 -157 0
-101 1 -108 34 -168 117 -215 394 -262 572 -95 180 168 138 465 -83 583 -56
30 -73 34 -153 37 -59 2 -103 -1 -127 -10z m203 -200 c55 -37 79 -81 79 -147
0 -102 -68 -170 -170 -170 -102 0 -170 68 -170 170 0 102 68 170 170 170 43 0
65 -6 91 -23z"/>
<path d="M1834 4321 c-107 -27 -198 -104 -247 -209 -57 -121 -39 -262 48 -376
65 -85 199 -142 310 -134 127 11 255 100 308 215 32 69 32 227 0 296 -33 71
-113 150 -186 182 -66 30 -172 42 -233 26z m163 -202 c124 -60 124 -248 0
-308 -56 -27 -102 -27 -157 2 -130 65 -128 248 4 308 54 24 100 24 153 -2z"/>
<path d="M899 4221 c-53 -54 -29 -138 45 -157 37 -9 84 13 102 49 50 96 -70
184 -147 108z"/>
<path d="M1084 3560 c-108 -23 -210 -104 -259 -206 -25 -51 -29 -71 -30 -149
0 -79 4 -98 29 -152 34 -73 113 -153 183 -186 69 -32 227 -32 296 0 115 53
204 181 215 308 8 111 -49 245 -134 310 -84 64 -207 95 -300 75z m156 -205
c34 -18 56 -44 75 -88 48 -114 -35 -237 -160 -237 -94 0 -175 79 -175 171 0
41 29 107 58 132 50 45 139 54 202 22z"/>
<path d="M2590 3555 c-112 -31 -208 -120 -250 -232 -30 -81 -25 -195 12 -275
96 -206 361 -272 547 -138 128 93 180 273 121 425 -32 83 -123 173 -204 204
-78 29 -158 35 -226 16z m178 -202 c63 -30 102 -120 82 -193 -52 -193 -340
-160 -340 39 0 137 130 214 258 154z"/>
<path d="M1820 2791 c-129 -42 -222 -141 -256 -271 -31 -121 5 -240 100 -336
76 -76 148 -107 251 -107 159 -1 288 89 346 242 17 45 20 72 17 136 -5 100
-37 175 -103 240 -69 69 -141 99 -245 102 -47 1 -96 -1 -110 -6z m177 -197
c105 -50 126 -206 38 -283 -48 -41 -101 -55 -161 -40 -123 31 -170 181 -87
280 49 58 139 76 210 43z"/>
</g>
</svg>
